<svg id="visual" viewBox="0 0 600 900" width="600" height="900" xmlns="http://www.w3.org/2000/svg" xmlns:xlink="http://www.w3.org/1999/xlink" version="1.1"><rect x="0" y="0" width="600" height="900" fill="#002233"></rect><path d="M0 776L9.2 770.3C18.3 764.7 36.7 753.3 54.8 753.7C73 754 91 766 109.2 768.2C127.3 770.3 145.7 762.7 163.8 753C182 743.3 200 731.7 218.2 718.3C236.3 705 254.7 690 272.8 693.2C291 696.3 309 717.7 327.2 724.5C345.3 731.3 363.7 723.7 381.8 719.7C400 715.7 418 715.3 436.2 723.8C454.3 732.3 472.7 749.7 490.8 741.5C509 733.3 527 699.7 545.2 698C563.3 696.3 581.7 726.7 590.8 741.8L600 757L600 901L590.8 901C581.7 901 563.3 901 545.2 901C527 901 509 901 490.8 901C472.7 901 454.3 901 436.2 901C418 901 400 901 381.8 901C363.7 901 345.3 901 327.2 901C309 901 291 901 272.8 901C254.7 901 236.3 901 218.2 901C200 901 182 901 163.8 901C145.7 901 127.3 901 109.2 901C91 901 73 901 54.8 901C36.7 901 18.3 901 9.2 901L0 901Z" fill="#0066FF" stroke-linecap="round" stroke-linejoin="miter"></path></svg>