<svg id="visual" viewBox="0 0 960 540" width="960" height="540" xmlns="http://www.w3.org/2000/svg" xmlns:xlink="http://www.w3.org/1999/xlink" version="1.1"><rect x="0" y="0" width="960" height="540" fill="#002233"></rect><path d="M0 417L10 418.3C20 419.7 40 422.3 60 430.3C80 438.3 100 451.7 120 452.2C140 452.7 160 440.3 180 430.3C200 420.3 220 412.7 240 409.3C260 406 280 407 300 417.2C320 427.3 340 446.7 360 452.8C380 459 400 452 420 444C440 436 460 427 480 430.8C500 434.7 520 451.3 540 455.8C560 460.3 580 452.7 600 452.8C620 453 640 461 660 452.7C680 444.3 700 419.7 720 410C740 400.3 760 405.7 780 417.7C800 429.7 820 448.3 840 456.7C860 465 880 463 900 452C920 441 940 421 950 411L960 401L960 541L950 541C940 541 920 541 900 541C880 541 860 541 840 541C820 541 800 541 780 541C760 541 740 541 720 541C700 541 680 541 660 541C640 541 620 541 600 541C580 541 560 541 540 541C520 541 500 541 480 541C460 541 440 541 420 541C400 541 380 541 360 541C340 541 320 541 300 541C280 541 260 541 240 541C220 541 200 541 180 541C160 541 140 541 120 541C100 541 80 541 60 541C40 541 20 541 10 541L0 541Z" fill="#0066FF" stroke-linecap="round" stroke-linejoin="miter"></path></svg>